PathFileType	4	(X/Y/Z)	Patient4_TMGait_0pt4_03_left_28.trc.trc
DataRate	CameraRate	NumFrames	NumMarkers	Units	OrigDataRate	OrigDataStartFrame	OrigNumFrames
74.866310160428	74.866310160428	6	33	mm	74.866310160428	106	       141
Frame#	Time	Sacral			L.Shoulder			Chest			R.Shoulder			Neck			R.ASIS			L.ASIS			R.Thigh.Superior			R.Thigh.Lateral			R.Thigh.Inferior			R.Patella			L.Thigh.Superior			L.Thigh.Lateral			L.Thigh.Inferior			L.Patella			L.Shank.Superior			L.Shank.Lateral			L.Shank.Inferior			R.Shank.Superior			R.Shank.Lateral			R.Shank.Inferior			R.Heel			R.Midfoot.Superior			R.Midfoot.Lateral			R.Toe			L.Heel			L.Midfoot.Lateral			L.Midfoot.Superior			L.Toe			L.Elbow			L.Wrist			R.Elbow			R.Wrist			
		X1	Y1	Z1	X2	Y2	Z2	X3	Y3	Z3	X4	Y4	Z4	X5	Y5	Z5	X6	Y6	Z6	X7	Y7	Z7	X8	Y8	Z8	X9	Y9	Z9	X10	Y10	Z10	X11	Y11	Z11	X12	Y12	Z12	X13	Y13	Z13	X14	Y14	Z14	X15	Y15	Z15	X16	Y16	Z16	X17	Y17	Z17	X18	Y18	Z18	X19	Y19	Z19	X20	Y20	Z20	X21	Y21	Z21	X22	Y22	Z22	X23	Y23	Z23	X24	Y24	Z24	X25	Y25	Z25	X26	Y26	Z26	X27	Y27	Z27	X28	Y28	Z28	X29	Y29	Z29	X30	Y30	Z30	X31	Y31	Z31	X32	Y32	Z32	X33	Y33	Z33	

106	38.272500000000	869.309562733052	1010.137516638027	505.832485580860	1036.092275088215	1435.865761220681	312.471657519660	1155.988893290075	1366.484036026717	461.036890176322	1095.025773161389	1439.993827288285	644.204912263042	1037.243408541898	1498.627658774898	469.430329067646	1107.123809271538	942.739994574325	602.336729364621	1069.798812717439	968.871434223780	331.217882490447	1134.329419977033	739.381865813015	573.581799097854	1049.591237563561	634.057657923808	638.322986937260	1120.908780489671	578.039722580250	556.054127515718	1116.621887270587	492.146723374508	562.587027306009	1155.912856281073	790.923128446751	348.715768836085	1111.020308490844	663.603109157756	267.877811070100	1220.125301335813	605.127946311816	319.129716689321	1239.469977291665	522.152779848480	308.396332482906	1188.841440749616	448.854616195012	299.883963632352	1063.056800523111	372.657727775988	251.559367643100	1089.335394085712	242.136399685435	299.310362706480	1086.572491571438	404.034967262995	570.249566132878	1014.501955221001	302.102120871470	634.138669089622	1052.535878147002	206.464669698496	568.516256815517	915.583353564372	43.134746053696	539.709332970770	1087.070125833249	96.291201894318	573.458204556737	999.633008129285	36.908587992627	613.137420333045	1207.808141052142	43.062041757717	600.005232284614	928.096835357124	124.841262801736	338.148213250270	991.878234007056	100.231357466216	254.130172524691	1090.903704586249	137.977973701669	273.867519774056	1195.751364352999	55.069213074365	237.274267849659	952.578420704941	1086.757247084873	215.504330775055	992.454233214764	828.065265488933	200.287798232406	1143.754407168256	1109.346517848213	792.032754798377	1381.662601964896	1028.707161485923	745.383990002879	
107	38.285857142857	868.278269611722	1010.942216541336	506.586019616251	1035.369819737754	1436.053433637316	312.913420051629	1156.000518832767	1366.054663833564	460.581714716217	1096.661181481447	1439.791405551744	644.218338425161	1037.795518678547	1498.615329301093	469.947076576957	1105.812945498594	942.459210755449	601.983080936235	1067.729903389426	969.004288164865	331.006027726330	1130.813802836896	738.656881637982	573.145846510118	1045.515920920733	634.044742083676	638.353002254415	1115.852035950193	577.422420333807	555.819911034040	1111.027937276426	492.062584328811	562.355169555081	1153.371576817403	791.503658021722	349.239391556762	1109.447452282844	664.256570385986	267.845888136951	1217.835885164560	605.931503982146	320.600781504825	1238.563181731025	524.611533053007	309.509971985827	1191.410492527888	450.836035525263	300.123452246021	1070.620646189366	367.731410877772	251.043936711858	1104.786498151935	238.593007232831	298.036523100094	1080.952862033523	403.924240770344	570.070356180740	1009.169767522317	302.029737182176	634.218791601012	1047.034476291756	206.364373498992	568.432186230187	910.157634696883	43.056842009788	539.751188963493	1081.610575496271	96.238850373508	573.457075975894	994.220572557901	36.857197341928	613.174703678554	1202.385380488482	43.098520566297	600.052836092234	951.343381468977	111.260293462639	336.379379285007	1016.248236690256	91.430019027130	251.960730844060	1112.805658089404	134.835399771700	271.866411754870	1222.367798162626	58.884188602517	234.240583341267	944.463627264126	1088.322673472263	218.244084031245	975.772878436797	828.547626221806	205.085064926766	1151.863727129828	1109.947664984390	790.609918166317	1392.616055990193	1040.876386532595	741.730786932438	
108	38.299214285714	867.271061156715	1011.650016984263	507.177102773651	1034.726925697146	1436.136982728152	313.136016484829	1156.034105891720	1365.523980125607	459.947124490383	1098.256320402864	1439.500438859649	644.012399718168	1038.338763912469	1498.499973073289	470.241382630590	1104.518695914555	942.120585918608	601.511818954152	1065.715687220397	968.971644625259	330.643068534107	1127.288742269743	737.898477355062	572.596385582302	1041.496884589997	634.017007714360	638.359102673885	1110.776009370624	576.793858809775	555.524984052360	1105.441975423781	491.957765621332	562.117205681320	1150.518351575658	791.543440150158	349.673816470837	1107.370123557766	664.521559970568	267.644954419321	1214.824178697659	606.085725108905	322.100323764412	1236.861474580265	526.594291309127	310.646970382117	1193.283021879225	452.601453964395	300.369844481761	1078.082638122726	362.705681046493	250.349518176213	1120.106448607827	235.458945690121	296.789874508673	1075.334027754269	403.812297338199	569.884741525815	1003.844369210714	301.930812531918	634.288673399996	1041.535444473455	206.250231750792	568.328528039196	904.726924158519	42.968984237883	539.788502950456	1076.146950714674	96.184851180574	573.444080077900	988.806648147360	36.805156069605	613.213986366423	1196.959498388550	43.141590991539	600.092437285549	975.079576627900	98.476653814479	334.496876848955	1041.041636917995	83.352595872238	249.858993915282	1134.771329696246	132.352460437837	270.027893167918	1248.763885540111	63.521317287092	231.751483952979	936.809151836306	1089.934286351964	220.670964433814	959.895243586775	829.388542588993	209.632758728622	1159.601403135332	1110.465277553764	788.748762324296	1402.606825621730	1052.862507843778	737.784902472103	
109	38.312571428571	866.280347243356	1012.261798021826	507.606083174775	1034.156755737047	1436.122876256182	313.128375434708	1156.075939416132	1364.906588090600	459.132603551486	1099.780289392347	1439.131131874646	643.582731277267	1038.848402588555	1498.297439147798	470.290554747177	1103.266584814911	941.734694170541	600.930858099343	1063.763190591586	968.781723316153	330.132134785345	1123.813673495840	737.116423537171	571.943406113826	1037.572918900701	633.979832124536	638.332338473155	1105.728633089287	576.161217666662	555.168615999095	1099.891701417256	491.823115896585	561.862229807052	1147.398676478842	791.095351420033	350.001117023395	1104.841224801985	664.431712168991	267.263750397923	1211.224831449126	605.676100944846	323.511599581285	1234.493565157070	528.143109722107	311.736205243005	1194.521458975961	454.175435616058	300.613092600516	1085.375811382116	357.765871250676	249.512087134654	1135.021544623294	232.888409919047	295.658814357444	1069.753968420896	403.702576899820	569.693524989691	998.540214138654	301.812920807778	634.340790309925	1036.053246753422	206.127605865781	568.210701324541	899.295004664298	42.872681585298	539.825014024347	1070.680061834626	96.132824033276	573.422524002808	983.390639926219	36.753940762996	613.254967754558	1191.531889985363	43.195173893761	600.124694850552	998.799447616908	86.897893121296	332.621335861976	1065.781187180517	76.235578592664	247.984052469524	1156.394841163717	130.641604165520	268.491722166328	1274.455355216976	68.896399445286	230.046732650582	929.670024823270	1091.549354026738	222.789777519033	944.899176078967	830.511211531230	213.881399990775	1166.952785078978	1110.895102254892	786.467582044152	1411.633766688635	1064.545048214478	733.582837096543	
110	38.325928571429	865.305085133121	1012.781103658963	507.872753518931	1033.647020673440	1436.022067126469	312.881124078143	1156.109894517517	1364.224923237522	458.138941400707	1101.201043944082	1438.702451817570	642.926743183616	1039.298743292054	1498.027656289658	470.077651277378	1102.084558678038	941.314961550383	600.242395428067	1061.881745965531	968.452866324704	329.475130515363	1120.447745706843	736.320431234106	571.198739489715	1033.776840731612	633.938889005928	638.258496263420	1100.758225804729	575.531232239522	554.750900654802	1094.405034372738	491.651104250599	561.577891457991	1144.079467249797	790.236968016747	350.196822607498	1101.931313091479	664.028747842497	266.706176413256	1207.201544496392	604.806908475508	324.714579727872	1231.606323971637	529.305020947401	312.709132928256	1195.198179726026	455.570750622707	300.840504228625	1092.385622348900	353.070001467151	248.594254494300	1149.228340519263	230.960707697950	294.721707903943	1064.247334828045	403.595257650433	569.493322658453	993.270122481069	301.685669276693	634.365818517507	1030.601116357517	206.001767374348	568.083303460980	893.863970070600	42.771053654250	539.862078811685	1065.210323023820	96.086474555470	573.395576813774	977.972054710518	36.705180292711	613.296974246077	1186.103409624042	43.263888420699	600.150115237295	1021.919556915795	76.820154068903	330.891468101652	1089.906603436734	70.209576527504	246.487334478593	1177.224396080069	129.711345451103	267.369240021803	1298.931430611202	74.801682024383	229.287862168740	923.081255249871	1093.126830931376	224.605366984367	930.848357177219	831.841182538174	217.773671249291	1173.896324125129	1111.242777095790	783.785787817879	1419.705570291642	1075.814339391840	729.157981472059	
111	38.339285714286	864.353984210732	1013.210638005696	507.975906683401	1033.178781984172	1435.847633133356	312.387716742482	1156.117988778266	1363.506714137801	456.967708985704	1102.487075597673	1438.238786590054	642.043911100744	1039.664552476280	1497.711002576887	469.593782869859	1101.002185669873	940.876241696270	599.443270083800	1060.085426304076	968.009080518117	328.672413790147	1117.245407793958	735.518898845905	570.373564447236	1030.136167761592	633.898652989155	638.120419563947	1095.912587109034	574.909061487657	554.272939431162	1089.013282673486	491.435587434046	561.252825101733	1140.651748573618	789.062674707689	350.230812705363	1098.727547941722	663.353684087262	265.997628993862	1202.938457716960	603.588500965351	325.602656268939	1228.358619444502	530.121892891015	313.508586873858	1195.388390051233	456.781467491678	301.040326821938	1098.950892265179	348.736634042266	247.683747072108	1162.404365960161	229.672617423458	294.041789112362	1058.845972765971	403.486649728435	569.277911595417	988.046987073067	301.558979364978	634.354068239164	1025.191331674772	205.876523767710	567.949328904230	888.434110391331	42.668553890024	539.898943485266	1059.737983946505	96.049195736907	573.366178450253	972.550596425825	36.660553928534	613.339348212345	1180.673983510760	43.352157187948	600.169100627862	1043.807529269749	68.411844158508	329.456084316823	1112.792595915653	65.296694457179	245.499288504562	1196.775226940762	129.466483914874	266.733840191197	1321.663632453988	80.917157272504	229.533874839823	917.060320345699	1094.628047844081	226.119317111806	917.796817544310	833.305652765315	221.247035065064	1180.403101115752	1111.520945298857	780.726266171385	1426.838417641453	1086.573982245828	724.541254465619	
